<?xml version="1.0" encoding="utf-8"?>
<!-- Generator: Adobe Illustrator 19.0.0, SVG Export Plug-In . SVG Version: 6.00 Build 0)  -->
<svg version="1.1" id="Layer_1" xmlns="http://www.w3.org/2000/svg" xmlns:xlink="http://www.w3.org/1999/xlink" x="0px" y="0px"
	 width="230px" height="230px" viewBox="-549.5 165.5 230 230" style="enable-background:new -549.5 165.5 230 230;"
	 xml:space="preserve">
<style type="text/css">
	.st0{fill:#FDD115;}
	.st1{fill:#1D1D1B;}
</style>
<g>
	<g>
		<path id="XMLID_49_" class="st0" d="M-547.8,245.7c0-10.2,7.7-22,16.4-26.6l79.2-38.8c9.2-4.6,24-4.6,33.2,0l80.8,38.3
			c9.2,4.6,16.9,16.4,16.9,26.6v71c0,10.2-7.7,22-16.4,26.6l-79.7,38.3c-9.2,4.1-24.5,4.1-33.2-0.5l-80.2-37.8
			c-9.2-4.1-16.9-16.4-16.9-26.1V245.7z"/>
		<path class="st1" d="M-434.3,380.7c-5.1,0-10.2-1-13.8-2.6l-81.3-38.8c-7.7-3.6-13.8-13.3-13.8-22v-72.6c0-8.7,6.1-18.4,13.8-22
			l80.8-39.4c3.6-2,8.7-2.6,13.8-2.6c5.1,0,9.7,1,13.3,2.6l81.8,38.8c7.7,3.6,13.8,13.3,13.8,22v73.1c0,8.7-6.1,18.4-13.8,22
			l-81.3,38.8C-424.1,379.6-429.2,380.7-434.3,380.7z M-434.8,182.3c-5.1,0-9.7,1-13.3,2.6l-80.8,39.4c-7.2,3.6-12.8,12.3-12.8,20.4
			v73.1c0,7.7,5.6,16.9,12.8,19.9l81.8,38.3c3.6,1.5,8.2,2.6,12.8,2.6c5.1,0,9.7-1,12.8-2.6l81.8-38.8c7.2-3.6,12.8-12.3,12.8-20.4
			v-73.1c0-7.7-5.6-16.9-12.8-19.9l-81.8-38.8C-425.1,183.4-429.7,182.3-434.8,182.3z"/>
		<g>
			<path class="st1" d="M-443,311.1c-0.5-0.5-0.5-1-0.5-2c0-2.6,2.6-4.6,6.1-5.1c0.5-5.6,1.5-9.2,2.6-11.2h-0.5c-4.6,0-8.7-2-15.3-2
				c-5.6,0-8.7,4.6-8.7,8.7c0,3.6,2,6.6,6.1,6.6s5.6-3.1,5.6-6.1c0-0.5,0-1,0-1.5l2.6-0.5c0,0.5,0,1,0,1.5c0,4.1-2,8.2-8.2,8.2
				s-9.2-4.1-9.2-8.2c0-5.1,4.1-10.2,11.8-10.2c6.6,0,11.8,2.6,15.3,2.6c0.5,0,1,0,1.5,0c1-1.5,2-2,2.6-2l1,1.5c-0.5,1-1,1.5-2.6,2
				c-0.5,1.5-1.5,5.1-2,11.8c1,0,1.5-0.5,2-0.5c0.5-1.5,1-2.6,1-2.6l1.5,1c0,1-0.5,2-2,3.1c0,1.5-0.5,3.6-0.5,6.1h-2
				c0-2,0.5-3.6,1-5.1c-0.5,0-1,0.5-1.5,0.5c-1.5,12.8-7.2,15.8-11.8,15.8c-5.1,0-7.2-2.6-7.2-5.6c0-2.6,2-5.1,4.6-5.1v2.6
				c-1.5,0-2,1.5-2,2.6c0,1.5,1,3.6,4.6,3.6s6.6-2,8.7-14.3c-2,0.5-3.6,1-3.6,3.1c0,0.5,0,1,0,1.5L-443,311.1z"/>
			<path class="st1" d="M-421,307.6c0,0,1,0,1,0.5c-1.5,4.1-3.1,7.2-6.1,7.2c-2.6,0-3.6-2.6-3.6-5.1c0-4.1,2-8.7,5.6-8.7
				c1.5,0,2,1,2,2.6c0,2-2,5.1-5.1,5.6v0.5c0,1.5,0.5,3.1,2,3.1C-423.6,312.7-422,310.6-421,307.6z M-427.1,308.1
				c2-1,3.1-3.1,3.1-4.1c0-0.5,0-0.5-0.5-0.5C-425.6,303-426.6,305.5-427.1,308.1z"/>
			<path class="st1" d="M-420,311.7c0.5,0.5,0.5,1,1.5,1c0.5,0,1-0.5,1-1.5c0-2-1-3.6-1.5-5.6c-0.5,1-0.5,2-1,2.6c0,0-1,0-1-0.5l0,0
				c0.5-1,1-2.6,1.5-3.6c0-1-0.5-2-0.5-3.1s0-2.6,0.5-4.1l2,0.5c0,1.5-0.5,3.1-1,4.1c0,2.6,3.1,5.6,3.1,8.7l0,0c0.5-1,1-2,1.5-3.1
				c0,0,1,0,1,0.5c-1.5,3.6-3.1,7.2-6.1,7.2c-1.5,0-2.6-1-3.1-2L-420,311.7z"/>
			<path class="st1" d="M-408.7,294.3c0,2.6-0.5,4.6-1,7.2c0.5,0,1,0,1,0l-0.5,1.5c0,0-0.5,0-1,0c-0.5,1-0.5,2-1,3.6
				c0,1.5,0,3.1,0,4.6c0,1,0,2,0.5,2c1,0,2-2.6,3.1-5.1l1,0.5c-1.5,4.6-2.6,6.6-4.6,6.6c-1.5,0-2-1.5-2-4.1c0-2,0.5-5.1,1-8.2
				c-0.5,0-1,0-1.5,0v-1.5c0,0,0.5,0,1.5,0c0.5-2,1-4.1,1.5-7.2H-408.7z"/>
			<path class="st1" d="M-503.3,240.6V280c0,0.5-0.5,1-1,1h-5.1c-0.5,0-1-0.5-1-1v-16.9h-4.1V280c0,0.5-0.5,1-1,1h-5.1
				c-0.5,0-1-0.5-1-1v-39.4c0-0.5,0.5-1,1-1h5.1c0.5,0,1,0.5,1,1v15.8h4.1v-15.8c0-0.5,0.5-1,1-1h5.1
				C-503.8,239.6-503.3,240.1-503.3,240.6z"/>
			<path class="st1" d="M-473.1,274.9v5.1c0,0.5-0.5,1-1,1h-13.3c-0.5,0-1-0.5-1-1v-39.4c0-0.5,0.5-1,1-1h13.3c0.5,0,1,0.5,1,1v5.1
				c0,0.5-0.5,1-1,1h-6.6v8.7h6.1c0.5,0,1,0.5,1,1v5.1c0,0.5-0.5,1-1,1h-6.1v12.3h6.6C-473.1,273.8-473.1,274.3-473.1,274.9z"/>
			<path class="st1" d="M-438.9,280c0,0.5,0,1-0.5,1h-5.6h-0.5l-0.5-0.5l-4.6-14.3v15.3V281c0,0.5-0.5,0.5-1,0.5h-5.1
				c-0.5,0-1-0.5-1-1v-39.4c0-0.5,0.5-1,1-1h9.2c1,0,2,0,3.1,0.5s1.5,1,2.6,1.5c0.5,0.5,1,1.5,1.5,2.6c0.5,1,0.5,2,0.5,3.1v9.7
				c0,1.5-0.5,2.6-1,4.1c-0.5,1-1.5,2-3.1,2.6L-438.9,280z M-450.7,258h2c0.5,0,0.5,0,1-0.5s0.5-0.5,0.5-1v-9.2c0-0.5,0-0.5-0.5-1
				c-0.5-0.5-0.5-0.5-1-0.5h-2V258z"/>
			<path class="st1" d="M-408.2,273.8c0,1,0,2-0.5,3.1s-1,1.5-1.5,2.6c-0.5,0.5-1.5,1-2.6,1.5s-2,0.5-3.1,0.5h-2c-1,0-2,0-3.1-0.5
				s-1.5-1-2.6-1.5c-0.5-0.5-1-1.5-1.5-2.6c-0.5-1-0.5-2-0.5-3.1v-27.1c0-1,0-2,0.5-3.1c0.5-1,1-1.5,1.5-2.6c0.5-0.5,1.5-1,2.6-1.5
				s2-0.5,3.1-0.5h2c1,0,2,0,3.1,0.5s1.5,1,2.6,1.5c0.5,0.5,1,1.5,1.5,2.6c0.5,1,0.5,2,0.5,3.1V273.8z M-414.9,247.2
				c0-0.5,0-0.5-0.5-1c-0.5-0.5-0.5-0.5-1-0.5h-0.5c-0.5,0-0.5,0-1,0.5s-0.5,0.5-0.5,1v26.6c0,0.5,0,0.5,0.5,1s0.5,0.5,1,0.5h0.5
				c0.5,0,0.5,0,1-0.5s0.5-0.5,0.5-1C-414.9,273.8-414.9,247.2-414.9,247.2z"/>
			<path class="st1" d="M-378.1,274.9v5.1c0,0.5-0.5,1-1,1h-13.3c-0.5,0-1-0.5-1-1v-39.4c0-0.5,0.5-1,1-1h13.3c0.5,0,1,0.5,1,1v5.1
				c0,0.5-0.5,1-1,1h-6.6v8.7h6.1c0.5,0,1,0.5,1,1v5.1c0,0.5-0.5,1-1,1h-6.1v12.3h6.6C-378.6,273.8-378.1,274.3-378.1,274.9z"/>
			<path class="st1" d="M-351.5,240.1c1,0.5,1.5,1,2.6,1.5c0.5,0.5,1,1.5,1.5,2.6c0.5,1,0.5,2,0.5,3.1v2c0,0.5-0.5,1-1,1l-5.6,1.5
				c-0.5,0-1,0-1-0.5v-4.1c0-0.5,0-0.5-0.5-1c-0.5-0.5-0.5-0.5-1-0.5h-0.5c-0.5,0-0.5,0-1,0.5s-0.5,0.5-0.5,1v5.1c0,0.5,0,1,0,1
				c0,0.5,0.5,0.5,0.5,1l7.7,5.6c0.5,0.5,1,1,1,1.5c0,0.5,0.5,1,0.5,2v10.2c0,1,0,2-0.5,3.1c-0.5,1-1,1.5-1.5,2.6
				c-0.5,0.5-1.5,1-2.6,1.5s-2,0.5-3.1,0.5h-2c-1,0-2,0-3.1-0.5c-1-0.5-1.5-1-2.6-1.5c-0.5-0.5-1-1.5-1.5-2.6s-0.5-2-0.5-3.1v-5.6
				c0-0.5,0.5-1,1-1l5.6-1.5c0.5,0,1,0,1,0.5v7.2c0,0.5,0,0.5,0.5,1c0.5,0.5,0.5,0.5,1,0.5h0.5c0.5,0,0.5,0,1-0.5s0.5-0.5,0.5-1
				v-7.7c0-0.5,0-1,0-1.5s-0.5-0.5-0.5-1l-7.7-5.6c-0.5-0.5-1-1-1.5-1.5c-0.5-0.5-0.5-1-0.5-2v-7.2c0-1,0-2,0.5-3.1
				c0.5-1,1-1.5,1.5-2.6c0.5-0.5,1.5-1,2.6-1.5s2-0.5,3.1-0.5h2C-353.5,239.6-352.5,239.6-351.5,240.1z"/>
			<path class="st1" d="M-475.7,233.4l-3.6,3.6h-2l2.6-3.6H-475.7z"/>
		</g>
	</g>
	<g>
		<path class="st1" d="M-445,334.7c-0.5,0-1,0.5-1,1v1.5h-2v-1c0-2,1-3.1,3.1-3.1s3.1,1,3.1,3.1c0,1.5-0.5,3.1-2.6,5.1
			c-1,1.5-1.5,2-1.5,2.6c0,0,0,0,0,0.5h4.1v2h-6.1v-2c0-1.5,0.5-2.6,2-4.1c1.5-1.5,2-2.6,2-4.1C-444,335.2-444.5,334.7-445,334.7z"
			/>
		<path class="st1" d="M-440.9,336.2c0-2,1-3.1,3.1-3.1s3.1,1,3.1,3.1v6.6c0,2-1,3.1-3.1,3.1s-3.1-1-3.1-3.1V336.2z M-438.9,342.8
			c0,1,0.5,1,1,1s1-0.5,1-1v-7.2c0-1-0.5-1-1-1s-1,0.5-1,1V342.8z"/>
		<path class="st1" d="M-432.8,334.7c1.5,0,2-0.5,2-1.5h1.5v12.8h-2v-9.7h-1.5V334.7z"/>
		<path class="st1" d="M-426.6,336.2c0-2,1-3.6,3.1-3.6c2,0,3.1,1,3.1,3.1v0.5h-2v-0.5c0-1-0.5-1-1-1s-1,0.5-1,1.5v2.6l0,0
			c0.5-0.5,1-1,2-1c1.5,0,2,1,2,3.1v2.6c0,2-1,3.1-3.1,3.1s-3.1-1-3.1-3.1C-426.6,343.3-426.6,336.2-426.6,336.2z M-424.6,340.8v2.6
			c0,1,0.5,1,1,1s1-0.5,1-1v-2.6c0-1-0.5-1-1-1C-424.6,339.3-424.6,339.8-424.6,340.8z"/>
	</g>
</g>
</svg>
